<svg width="347" height="93" viewBox="0 0 347 93" fill="none" xmlns="http://www.w3.org/2000/svg">
<style>
  @keyframes color-switch-blue-yellow {
    0%, 49.9% { fill: #F1C424; }
    50%, 100% { fill: #4681BC; }
  }
  .first-a-aware { 
    animation: color-switch-blue-yellow 6s step-end infinite;
  }
</style>
<path class="first-a-aware" d="M186.192 58.1276H188.112V65.9996H169.296V58.1276H172.176L171.408 54.2876H164.88L164.112 58.1276H166.992V65.9996H150.576V58.1276H152.496L160.608 28.6556H178.08L186.192 58.1276ZM165.936 49.1996H170.352L168.384 39.6476H167.904L165.936 49.1996ZM225.375 28.6556H240.735V36.5276H238.815L231.663 65.9996H217.311L212.943 45.2636H212.463L207.855 65.9996H193.503L185.871 36.5276H183.951V28.6556H201.711V36.5276H199.887L201.759 48.7676H202.239L206.799 28.6556H220.623L224.847 48.7676H225.327L227.199 36.5276H225.375V28.6556Z" fill="#F1C424"/>
<!-- Second A in AWARE (static blue) -->
<path d="M271.739 58.1276H273.659V65.9996H254.843V58.1276H257.723L256.955 54.2876H250.427L249.659 58.1276H252.539V65.9996H236.123V58.1276H238.043L246.155 28.6556H263.627L271.739 58.1276ZM251.483 49.1996H255.899L253.931 39.6476H253.451L251.483 49.1996Z" fill="#4681BC"/>
<!-- FIRST A in AWARE (animated - at M275.179) -->
<path d="M275.179 58.1276H277.579V36.5276H275.179V28.6556H297.211C301.339 28.6556 304.491 29.5036 306.667 31.1996C308.843 32.8956 309.931 35.6476 309.931 39.4556C309.931 41.5996 309.499 43.4556 308.635 45.0236C307.771 46.5916 306.539 47.6796 304.939 48.2876L304.987 48.7676C308.059 49.2476 309.595 51.1356 309.595 54.4316V58.1276H311.851V65.9996H296.635V54.7196C296.635 53.4716 296.443 52.5276 296.059 51.8876C295.707 51.2476 295.131 50.8156 294.331 50.5916C293.563 50.3676 292.459 50.2556 291.019 50.2556V58.1276H294.187V65.9996H275.179V58.1276ZM293.611 44.3996C294.539 44.3996 295.227 44.1596 295.675 43.6796C296.155 43.1676 296.395 42.3836 296.395 41.3276V39.5996C296.395 38.5436 296.155 37.7756 295.675 37.2956C295.227 36.7836 294.539 36.5276 293.611 36.5276H291.019V44.3996H293.611Z" fill="#4681BC"/>
<!-- Rest of AWARE: R, E (static blue) -->
<path d="M313.569 65.9996V58.1276H315.969V36.5276H313.569V28.6556H345.969V43.1516H335.217V36.5276H329.409V44.1116H333.633V49.5836H329.409V58.1276H335.217V50.5436H345.969V65.9996H313.569Z" fill="#4681BC"/>
<path d="M0.96 42.128H3.36V20.528H0.96V12.656H22.992C26.992 12.656 30.112 13.472 32.352 15.104C34.592 16.736 35.712 19.072 35.712 22.112C35.712 24 35.264 25.6 34.368 26.912C33.472 28.192 32.416 29.168 31.2 29.84C30.016 30.48 28.864 30.912 27.744 31.136V31.616C30.016 31.84 32.064 32.56 33.888 33.776C35.712 34.992 36.624 37.168 36.624 40.304C36.624 43.664 35.36 46.128 32.832 47.696C30.304 49.232 27.024 50 22.992 50H0.96V42.128ZM19.392 28.4C20.32 28.4 21.008 28.16 21.456 27.68C21.936 27.168 22.176 26.384 22.176 25.328V23.6C22.176 22.544 21.936 21.776 21.456 21.296C21.008 20.784 20.32 20.528 19.392 20.528H16.8V28.4H19.392ZM19.728 42.128C20.656 42.128 21.344 41.888 21.792 41.408C22.272 40.896 22.512 40.112 22.512 39.056V36.944C22.512 35.888 22.272 35.12 21.792 34.64C21.344 34.128 20.656 33.872 19.728 33.872H16.8V42.128H19.728Z" fill="#F1C424"/>
<path d="M38.1788 50V42.128H40.5788V20.528H38.1788V12.656H70.5788V27.152H59.8268V20.528H54.0188V28.112H58.2428V33.584H54.0188V42.128H59.8268V34.544H70.5788V50H38.1788Z" fill="#4681BC"/>
<path class="hex1" d="M101.98 25.015L90.2886 24.9398C89.5928 24.9353 88.9446 25.2928 88.5772 25.8837L82.0751 36.3421C81.678 36.9809 81.6728 37.7884 82.0617 38.4322L88.4287 48.9733C88.7885 49.569 89.432 49.9348 90.1278 49.9392L101.819 50.0144C102.526 50.019 103.183 49.6496 103.547 49.043L109.82 38.5832C110.194 37.9579 110.199 37.1782 109.833 36.5482L103.695 26.0085C103.339 25.3973 102.687 25.0195 101.98 25.015Z" fill="#4681BC"/>
<path class="hex2" d="M128.291 13.1841L117.121 13.1123C116.415 13.1077 115.758 13.4767 115.394 14.0827L109.114 24.5426C108.738 25.1683 108.733 25.949 109.101 26.5795L115.246 37.1192C115.602 37.7299 116.254 38.1072 116.961 38.1118L128.13 38.1836C128.848 38.1882 129.514 37.8074 129.874 37.186L135.932 26.7247C136.286 26.1127 136.291 25.359 135.945 24.7425L130.022 14.2041C129.67 13.5781 129.009 13.1888 128.291 13.1841Z" fill="#4681BC"/>
<path class="hex3" d="M101.811 55.0147L90.0716 54.9392C89.3888 54.9348 88.751 55.279 88.3799 55.8522L81.9321 65.8109C81.5089 66.4645 81.5035 67.3042 81.9182 67.9632L88.2374 78.004C88.6011 78.5819 89.2345 78.9343 89.9172 78.9387L101.656 79.0142C102.351 79.0187 102.998 78.6626 103.366 78.0736L109.585 68.1134C109.985 67.473 109.991 66.6621 109.599 66.0166L103.508 55.9772C103.148 55.3835 102.505 55.0192 101.811 55.0147Z" fill="#4681BC"/>
<path class="hex4" d="M127.709 67.1814L116.018 67.1062C115.322 67.1018 114.674 67.4593 114.307 68.0502L107.804 78.5086C107.407 79.1473 107.402 79.9548 107.791 80.5986L114.158 91.1398C114.518 91.7354 115.161 92.1012 115.857 92.1057L127.548 92.1809C128.256 92.1855 128.913 91.8161 129.277 91.2095L135.549 80.7496C135.924 80.1244 135.929 79.3447 135.562 78.7147L129.425 68.175C129.069 67.5638 128.417 67.186 127.709 67.1814Z" fill="#4681BC"/>
<path class="hex5" d="M127.907 40.1822L116.168 40.1067C115.485 40.1023 114.847 40.4465 114.476 41.0196L108.028 50.9784C107.605 51.6319 107.599 52.4717 108.014 53.1306L114.333 63.1715C114.697 63.7494 115.33 64.1018 116.013 64.1062L127.752 64.1817C128.447 64.1861 129.094 63.8301 129.462 63.2411L135.681 53.2809C136.081 52.6405 136.087 51.8295 135.695 51.1841L129.604 41.1447C129.243 40.551 128.601 40.1866 127.907 40.1822Z" fill="#F1C424"/>
</svg>
